<svg viewBox="0 0 96 112" fill="none" xmlns="http://www.w3.org/2000/svg">
<path fill-rule="evenodd" clip-rule="evenodd" d="M52.2062 2.4372C49.607 0.920998 46.393 0.921 43.7938 2.4372L4.14159 25.5693C1.57699 27.0654 0 29.811 0 32.78V52.4079C0 55.377 1.577 58.1226 4.1416 59.6186L22.9565 70.594V92.5818C22.9565 95.5509 24.5335 98.2965 27.0981 99.7925L43.7938 109.532C46.393 111.048 49.607 111.048 52.2062 109.532L91.8584 86.3995C94.423 84.9035 96 82.1579 96 79.1888V59.5609C96 56.5919 94.423 53.8463 91.8584 52.3502L73.0435 41.3749V19.387C73.0435 16.418 71.4665 13.6723 68.9019 12.1763L52.2062 2.4372ZM50.1031 6.04245C48.8035 5.28435 47.1965 5.28435 45.8969 6.04245L30.7145 14.8989C30.0242 15.3015 30.0242 16.2989 30.7145 16.7015L46.9485 26.1714C47.5983 26.5504 48.4018 26.5504 49.0516 26.1714L65.2856 16.7015C65.9758 16.2989 65.9758 15.3015 65.2856 14.8989L50.1031 6.04245ZM26.0951 18.822C25.4453 18.443 24.6417 18.443 23.9919 18.822L7.75793 28.2919C7.06767 28.6945 7.06767 29.6919 7.75793 30.0945L23.9919 39.5644C24.6417 39.9434 25.4453 39.9434 26.0951 39.5644L42.3291 30.0945C43.0193 29.6919 43.0193 28.6945 42.3291 28.2919L26.0951 18.822ZM46.9485 32.2099C47.5983 31.8309 48.4018 31.8309 49.0516 32.2099L65.2856 41.6798C65.9758 42.0824 65.9758 43.0798 65.2856 43.4824L49.0516 52.9523C48.4018 53.3313 47.5983 53.3313 46.9485 52.9523L30.7145 43.4824C30.0242 43.0798 30.0242 42.0824 30.7145 41.6798L46.9485 32.2099ZM72.0081 45.6029C71.3583 45.2239 70.5548 45.2239 69.905 45.6029L53.671 55.0728C52.9807 55.4754 52.9807 56.4728 53.671 56.8754L69.905 66.3453C70.5548 66.7243 71.3583 66.7243 72.0081 66.3453L88.2421 56.8754C88.9324 56.4728 88.9324 55.4754 88.2421 55.0728L72.0081 45.6029ZM29.2013 96.1869C27.919 95.4389 27.1305 94.0661 27.1305 92.5816V74.8265C27.1305 74.0212 28.0041 73.5194 28.6998 73.9252L44.8777 83.3623C45.5189 83.7363 45.9131 84.4227 45.9131 85.165V104.119C45.9131 104.924 45.0395 105.426 44.3439 105.02L29.2013 96.1869ZM49.0516 58.9959C48.4018 58.6169 47.5983 58.6169 46.9485 58.9959L30.7145 68.4658C30.0242 68.8684 30.0242 69.8658 30.7145 70.2684L46.9485 79.7383C47.5983 80.1173 48.4018 80.1173 49.0516 79.7383L65.2856 70.2684C65.9758 69.8658 65.9758 68.8684 65.2856 68.4658L49.0516 58.9959Z" fill="currentColor" style="fill:currentColor;fill-opacity:1;"/>
</svg>
