<svg width="134" height="54" viewBox="0 0 134 54" fill="none" xmlns="http://www.w3.org/2000/svg">
<g clip-path="url(#clip0_4175_2)">
<g clip-path="url(#clip1_4175_2)">
<path fill-rule="evenodd" clip-rule="evenodd" d="M87.8536 20.5372C105.826 20.4666 116.737 34.9639 121.152 51.1456C121.228 51.4234 121.516 51.5882 121.793 51.5118C122.071 51.4355 122.236 51.1482 122.16 50.8704C117.622 34.2353 106.324 19.42 87.8488 19.4929C87.561 19.4935 87.3283 19.7283 87.3291 20.0175C87.3296 20.3053 87.5645 20.5379 87.8536 20.5372Z" fill="currentColor"/>
<path fill-rule="evenodd" clip-rule="evenodd" d="M121.573 50.7044C120.927 50.0523 120.126 49.2248 120.032 49.1336C117.494 46.6608 114.708 44.7144 111.541 43.1078C111.284 42.977 110.969 43.0803 110.838 43.3372C110.707 43.5941 110.811 43.9091 111.068 44.0399C114.139 45.5969 116.842 47.4838 119.304 49.8827C119.447 50.0225 121.248 51.8836 121.64 52.2326C121.8 52.3765 121.936 52.4082 121.968 52.4126C122.141 52.4427 122.265 52.3907 122.352 52.3323C122.45 52.2656 122.585 52.1161 122.626 51.8593C122.669 51.5904 122.619 51.0139 122.619 50.8674C122.615 48.6566 122.418 46.1896 122.699 43.8746C122.968 41.667 123.672 39.5951 125.478 38.0632C125.698 37.8769 125.724 37.5463 125.538 37.3264C125.352 37.1064 125.021 37.08 124.801 37.2663C122.783 38.9795 121.962 41.2808 121.662 43.7478C121.382 46.0492 121.56 48.4964 121.573 50.7044Z" fill="currentColor"/>
</g>
<path d="M7.3 28.44C7.06 28.44 6.86 28.31 6.7 28.05C6.58 27.93 6.5 27.76 6.46 27.54C6.44 27.34 6.51 26.97 6.67 26.43C6.83 25.87 7.1 25.02 7.48 23.88C7.68 23.12 7.84 22.57 7.96 22.23C8.08 21.87 8.14 21.61 8.14 21.45C8.14 21.23 8.16 21.05 8.2 20.91C8.26 20.75 8.29 20.6 8.29 20.46C8.41 20.46 8.53 20.35 8.65 20.13C8.77 19.91 8.87 19.61 8.95 19.23C9.03 18.89 9.1 18.62 9.16 18.42C9.24 18.2 9.28 18.05 9.28 17.97C9.38 17.81 9.48 17.56 9.58 17.22C9.7 16.88 9.88 16.47 10.12 15.99C10.28 15.39 10.46 14.77 10.66 14.13C10.86 13.47 11.06 12.86 11.26 12.3C11.48 11.72 11.66 11.27 11.8 10.95C12.02 10.33 12.19 9.9 12.31 9.66C12.43 9.4 12.43 9.23 12.31 9.15C12.17 9.05 12.14 8.88 12.22 8.64C12.3 8.4 12.52 8.13 12.88 7.83C13.1 7.57 13.29 7.39 13.45 7.29C13.61 7.17 13.81 7.11 14.05 7.11C14.31 7.11 14.68 7.13 15.16 7.17C15.52 7.19 15.9 7.2 16.3 7.2C16.72 7.2 16.98 7.2 17.08 7.2C17.26 7.28 17.48 7.37 17.74 7.47C18 7.55 18.23 7.63 18.43 7.71C18.65 7.79 18.76 7.86 18.76 7.92C18.76 8.04 18.8 8.12 18.88 8.16C18.98 8.18 19.08 8.2 19.18 8.22C19.32 8.22 19.51 8.33 19.75 8.55C19.99 8.75 20.24 9.01 20.5 9.33C20.76 9.63 20.96 9.95 21.1 10.29C21.26 10.63 21.38 10.95 21.46 11.25C21.56 11.55 21.56 11.98 21.46 12.54C21.44 12.84 21.39 13.14 21.31 13.44C21.25 13.74 21.18 13.94 21.1 14.04C20.98 14.12 20.87 14.22 20.77 14.34C20.67 14.46 20.62 14.57 20.62 14.67C20.62 14.75 20.55 14.91 20.41 15.15C20.27 15.37 20.09 15.63 19.87 15.93C19.65 16.23 19.41 16.53 19.15 16.83C18.89 17.13 18.64 17.39 18.4 17.61C18.14 17.93 17.83 18.23 17.47 18.51C17.13 18.79 16.82 19.02 16.54 19.2C16.02 19.44 15.44 19.68 14.8 19.92C14.18 20.16 13.58 20.36 13 20.52C12.44 20.68 11.97 20.75 11.59 20.73C11.01 20.81 10.63 20.89 10.45 20.97C10.29 21.03 10.17 21.2 10.09 21.48C9.99 21.74 9.89 22.01 9.79 22.29C9.71 22.55 9.67 22.73 9.67 22.83C9.63 22.91 9.53 23.16 9.37 23.58C9.23 23.98 9.07 24.45 8.89 24.99C8.73 25.53 8.57 26.06 8.41 26.58C8.25 27.1 8.13 27.53 8.05 27.87C7.97 28.15 7.87 28.31 7.75 28.35C7.63 28.41 7.48 28.44 7.3 28.44ZM11.02 19.14C11.1 19.22 11.41 19.23 11.95 19.17C12.49 19.11 13.07 18.96 13.69 18.72C14.09 18.58 14.49 18.41 14.89 18.21C15.31 18.01 15.71 17.79 16.09 17.55C16.29 17.41 16.59 17.16 16.99 16.8C17.39 16.44 17.79 16.01 18.19 15.51C18.25 15.41 18.35 15.22 18.49 14.94C18.65 14.64 18.79 14.36 18.91 14.1C19.09 13.82 19.27 13.41 19.45 12.87C19.63 12.31 19.67 11.85 19.57 11.49C19.47 10.97 19.21 10.49 18.79 10.05C18.37 9.59 17.87 9.28 17.29 9.12C16.85 9.04 16.48 9 16.18 9C15.9 9 15.59 9.03 15.25 9.09C14.93 9.19 14.69 9.33 14.53 9.51C14.39 9.69 14.2 10.07 13.96 10.65C13.82 10.93 13.62 11.36 13.36 11.94C13.1 12.5 12.88 13.03 12.7 13.53C12.34 14.85 11.98 15.94 11.62 16.8C11.28 17.64 11.07 18.17 10.99 18.39C11.01 18.61 11 18.77 10.96 18.87C10.92 18.95 10.94 19.04 11.02 19.14ZM22.109 27C21.729 27.1 21.419 27.02 21.179 26.76C20.959 26.5 20.829 26.1 20.789 25.56C20.749 25.02 20.809 24.38 20.969 23.64C21.069 23.4 21.149 23.17 21.209 22.95C21.269 22.71 21.299 22.52 21.299 22.38C21.339 22.18 21.419 21.89 21.539 21.51C21.659 21.11 21.789 20.7 21.929 20.28C22.069 19.86 22.199 19.49 22.319 19.17C22.459 18.83 22.549 18.62 22.589 18.54C22.669 18.54 22.739 18.47 22.799 18.33C22.859 18.19 22.889 18.05 22.889 17.91C22.889 17.75 22.919 17.57 22.979 17.37C23.059 17.17 23.139 17.03 23.219 16.95C23.219 16.85 23.239 16.74 23.279 16.62C23.339 16.48 23.369 16.37 23.369 16.29C23.369 16.21 23.389 16.13 23.429 16.05C23.489 15.97 23.519 15.89 23.519 15.81C23.659 15.55 23.839 15.14 24.059 14.58C24.299 14 24.549 13.36 24.809 12.66C25.089 11.96 25.349 11.27 25.589 10.59C25.829 9.91 26.019 9.34 26.159 8.88C26.319 8.4 26.399 8.11 26.399 8.01C26.399 7.85 26.439 7.73 26.519 7.65C26.599 7.57 26.719 7.53 26.879 7.53C26.939 7.47 27.009 7.43 27.089 7.41C27.189 7.39 27.279 7.38 27.359 7.38C27.359 7.38 27.399 7.42 27.479 7.5C27.559 7.58 27.679 7.7 27.839 7.86C27.999 8 28.089 8.16 28.109 8.34C28.149 8.52 28.169 8.73 28.169 8.97C28.169 9.23 28.139 9.46 28.079 9.66C28.019 9.86 27.899 10.15 27.719 10.53C27.539 10.91 27.259 11.5 26.879 12.3C26.719 12.7 26.549 13.08 26.369 13.44C26.189 13.78 26.099 13.99 26.099 14.07C26.099 14.15 26.059 14.27 25.979 14.43C25.919 14.59 25.849 14.79 25.769 15.03C25.689 15.19 25.579 15.43 25.439 15.75C25.299 16.05 25.149 16.38 24.989 16.74C24.849 17.08 24.729 17.38 24.629 17.64C24.529 17.88 24.479 18.02 24.479 18.06C24.479 18.14 24.469 18.22 24.449 18.3C24.449 18.38 24.409 18.46 24.329 18.54C24.249 18.54 24.199 18.6 24.179 18.72C24.179 18.82 24.179 18.87 24.179 18.87C24.179 19.07 24.019 19.6 23.699 20.46C23.379 21.56 23.079 22.57 22.799 23.49C22.539 24.41 22.409 25.15 22.409 25.71C22.409 26.19 22.399 26.51 22.379 26.67C22.359 26.81 22.269 26.92 22.109 27ZM26.4873 25.92C26.4073 25.76 26.3073 25.64 26.1873 25.56C26.0673 25.46 26.0073 25.37 26.0073 25.29C26.0073 25.21 25.9973 25.13 25.9773 25.05C25.9773 24.95 25.9373 24.86 25.8573 24.78C25.7573 24.66 25.7673 24.39 25.8873 23.97C26.0073 23.53 26.2073 23 26.4873 22.38C26.7673 21.74 27.0973 21.07 27.4773 20.37C27.6373 20.21 27.7973 20 27.9573 19.74C28.1173 19.48 28.2373 19.31 28.3173 19.23C28.3173 19.15 28.3473 19.08 28.4073 19.02C28.4673 18.94 28.5373 18.9 28.6173 18.9V18.72C28.6173 18.62 28.7073 18.45 28.8873 18.21C29.0873 17.97 29.3273 17.71 29.6073 17.43C29.8873 17.13 30.1773 16.85 30.4773 16.59C30.7773 16.31 31.0273 16.11 31.2273 15.99C31.6473 15.71 32.0773 15.54 32.5173 15.48C32.9773 15.42 33.3673 15.52 33.6873 15.78C33.7473 15.84 33.8473 15.94 33.9873 16.08C34.1273 16.22 34.2873 16.38 34.4673 16.56C34.6673 16.72 34.8673 16.89 35.0673 17.07L36.1773 18.06L35.6373 19.56C35.3773 20.36 35.3073 21.06 35.4273 21.66C35.5673 22.26 35.7673 22.78 36.0273 23.22C36.1273 23.44 36.3273 23.65 36.6273 23.85C36.9473 24.05 37.2473 24.17 37.5273 24.21C37.6873 24.23 37.8373 24.29 37.9773 24.39C38.1173 24.49 38.1873 24.65 38.1873 24.87C38.1873 25.07 38.1473 25.23 38.0673 25.35C37.9873 25.47 37.8473 25.55 37.6473 25.59C36.9873 25.67 36.3673 25.51 35.7873 25.11C35.2273 24.71 34.7073 24.05 34.2273 23.13C34.1473 23.01 34.0373 22.79 33.8973 22.47C33.7773 22.13 33.7073 21.91 33.6873 21.81C33.6073 21.91 33.4573 22.1 33.2373 22.38C33.0173 22.64 32.8473 22.83 32.7273 22.95C31.3073 24.39 30.0773 25.36 29.0373 25.86C28.0173 26.34 27.1673 26.36 26.4873 25.92ZM27.5673 24.24C27.5673 24.38 27.7773 24.38 28.1973 24.24C28.6373 24.08 29.1073 23.8 29.6073 23.4C30.2873 22.82 30.9673 22.18 31.6473 21.48C32.3473 20.78 32.9073 20.13 33.3273 19.53L33.9873 18.45C33.7873 17.99 33.5673 17.68 33.3273 17.52C33.1073 17.34 32.9173 17.25 32.7573 17.25C32.4973 17.25 32.1073 17.49 31.5873 17.97C31.0873 18.45 30.5473 19.09 29.9673 19.89C29.3873 20.69 28.8373 21.57 28.3173 22.53C28.1173 22.93 27.9373 23.32 27.7773 23.7C27.6373 24.06 27.5673 24.24 27.5673 24.24ZM38.893 34.23C38.453 34.31 38.153 34.32 37.993 34.26C37.833 34.2 37.613 34.1 37.333 33.96C37.113 33.8 36.943 33.68 36.823 33.6C36.703 33.52 36.643 33.44 36.643 33.36C36.643 33.3 36.663 33.23 36.703 33.15C36.743 33.09 36.813 33.03 36.913 32.97C37.033 32.93 37.193 32.91 37.393 32.91C37.533 32.99 37.763 33.03 38.083 33.03C38.423 33.03 38.633 32.99 38.713 32.91C38.713 32.91 38.803 32.85 38.983 32.73C39.183 32.63 39.443 32.55 39.763 32.49C40.383 32.19 40.933 31.81 41.413 31.35C41.893 30.89 42.353 30.29 42.793 29.55C42.973 29.27 43.163 28.94 43.363 28.56C43.563 28.2 43.703 27.84 43.783 27.48C43.943 27.08 44.123 26.54 44.323 25.86C44.543 25.18 44.733 24.51 44.893 23.85C45.053 23.17 45.143 22.66 45.163 22.32C45.283 21.2 45.473 20.17 45.733 19.23C46.013 18.27 46.253 17.2 46.453 16.02C46.573 15.74 46.663 15.58 46.723 15.54C46.783 15.48 46.913 15.45 47.113 15.45C47.333 15.45 47.493 15.47 47.593 15.51C47.713 15.53 47.843 15.65 47.983 15.87C48.183 16.25 48.253 16.7 48.193 17.22C48.153 17.72 48.003 18.16 47.743 18.54C47.543 18.82 47.363 19.26 47.203 19.86C47.063 20.44 46.923 21.17 46.783 22.05C46.683 22.49 46.573 23.01 46.453 23.61C46.353 24.19 46.243 24.84 46.123 25.56C46.043 25.76 45.933 26.07 45.793 26.49C45.653 26.89 45.563 27.21 45.523 27.45C45.503 27.53 45.443 27.69 45.343 27.93C45.243 28.17 45.143 28.4 45.043 28.62C44.943 28.86 44.873 29.02 44.833 29.1C44.053 30.72 43.163 31.96 42.163 32.82C41.163 33.68 40.073 34.15 38.893 34.23ZM41.173 25.53C40.953 25.53 40.723 25.41 40.483 25.17C40.263 24.93 40.113 24.74 40.033 24.6C39.953 24.4 39.853 24.21 39.733 24.03C39.613 23.85 39.523 23.63 39.463 23.37C39.423 23.11 39.443 22.79 39.523 22.41C39.603 22.15 39.713 21.78 39.853 21.3C40.013 20.8 40.183 20.26 40.363 19.68C40.563 19.1 40.763 18.53 40.963 17.97C41.183 17.39 41.383 16.88 41.563 16.44C41.743 15.98 41.903 15.65 42.043 15.45C42.163 15.29 42.293 15.19 42.433 15.15C42.593 15.11 42.753 15.13 42.913 15.21C43.073 15.27 43.213 15.4 43.333 15.6C43.553 15.88 43.643 16.12 43.603 16.32C43.563 16.52 43.383 16.91 43.063 17.49C42.983 17.71 42.883 17.95 42.763 18.21C42.643 18.45 42.583 18.61 42.583 18.69C42.563 18.73 42.523 18.87 42.463 19.11C42.423 19.33 42.373 19.54 42.313 19.74C42.253 19.94 42.193 20.04 42.133 20.04C42.053 20.12 41.963 20.35 41.863 20.73C41.763 21.09 41.673 21.5 41.593 21.96C41.513 22.4 41.463 22.79 41.443 23.13C41.423 23.45 41.453 23.61 41.533 23.61C42.153 23.61 42.793 23.37 43.453 22.89C44.133 22.41 44.813 21.71 45.493 20.79L46.003 22.92C45.723 23.06 45.463 23.21 45.223 23.37C44.983 23.51 44.763 23.68 44.563 23.88C44.503 23.96 44.363 24.07 44.143 24.21C43.923 24.35 43.703 24.48 43.483 24.6C43.283 24.7 43.153 24.75 43.093 24.75C43.093 24.75 43.063 24.76 43.003 24.78C42.963 24.78 42.943 24.82 42.943 24.9C42.943 24.94 42.813 25.02 42.553 25.14C42.293 25.24 42.023 25.33 41.743 25.41C41.463 25.49 41.273 25.53 41.173 25.53ZM49.6277 27.27C49.3677 27.17 49.1777 27.02 49.0577 26.82C48.9377 26.6 48.8677 26.29 48.8477 25.89C48.8477 25.65 48.8877 25.33 48.9677 24.93C49.0477 24.53 49.1377 24.07 49.2377 23.55C49.2377 23.51 49.2377 23.47 49.2377 23.43C49.2577 23.37 49.2677 23.33 49.2677 23.31C49.2877 23.23 49.3077 23.11 49.3277 22.95C49.3677 22.79 49.3977 22.67 49.4177 22.59C49.4377 22.49 49.4477 22.49 49.4477 22.59L49.6577 21.78C49.7577 21.42 49.8577 21.06 49.9577 20.7C50.0577 20.34 50.1477 20.03 50.2277 19.77C50.3077 19.49 50.3577 19.33 50.3777 19.29C50.3777 19.29 50.4177 19.18 50.4977 18.96C50.5777 18.72 50.6577 18.49 50.7377 18.27C51.0777 17.33 51.3877 16.54 51.6677 15.9C51.9477 15.24 52.1977 14.76 52.4177 14.46C52.4377 14.4 52.4677 14.33 52.5077 14.25C52.5477 14.15 52.5777 14.07 52.5977 14.01C52.6177 13.85 52.6377 13.73 52.6577 13.65C52.6977 13.55 52.7477 13.46 52.8077 13.38C52.8477 13.3 52.9077 13.2 52.9877 13.08C53.0677 12.94 53.1577 12.77 53.2577 12.57L53.3777 12.24C53.4977 11.98 53.6477 11.69 53.8277 11.37C54.0077 11.05 54.1377 10.82 54.2177 10.68C54.2977 10.5 54.4177 10.29 54.5777 10.05C54.7377 9.79 54.8577 9.62 54.9377 9.54L54.9077 9.51C55.0077 9.33 55.1277 9.23 55.2677 9.21C55.4277 9.17 55.5977 9.15 55.7777 9.15C56.0577 9.15 56.2177 9.19 56.2577 9.27C56.2977 9.35 56.3177 9.53 56.3177 9.81C56.3177 10.11 56.3077 10.33 56.2877 10.47C56.2877 10.59 56.2077 10.73 56.0477 10.89H56.0777C56.1177 10.85 56.1077 10.9 56.0477 11.04C55.9877 11.16 55.9377 11.25 55.8977 11.31C55.8577 11.41 55.8077 11.52 55.7477 11.64C55.7077 11.76 55.6577 11.85 55.5977 11.91C55.5377 11.99 55.3877 12.26 55.1477 12.72C54.9277 13.16 54.6677 13.68 54.3677 14.28C54.0877 14.88 53.8177 15.46 53.5577 16.02C53.2977 16.58 53.1077 17.01 52.9877 17.31L52.8377 17.76C52.7977 17.84 52.7777 17.9 52.7777 17.94C52.7177 18.08 52.6577 18.22 52.5977 18.36C52.5377 18.5 52.4777 18.62 52.4177 18.72L51.9077 20.46L51.7577 21.09L51.4877 21.75L51.3077 22.32C51.2677 22.44 51.2377 22.55 51.2177 22.65C51.1977 22.75 51.1577 22.83 51.0977 22.89C51.0977 22.91 51.0877 22.94 51.0677 22.98C51.0677 23 51.0677 23.02 51.0677 23.04C50.9877 23.36 50.8977 23.81 50.7977 24.39C50.6977 24.97 50.6277 25.58 50.5877 26.22C50.5877 26.24 50.5777 26.26 50.5577 26.28C50.5577 26.3 50.5577 26.32 50.5577 26.34C50.4977 26.76 50.3977 27.04 50.2577 27.18C50.1177 27.32 49.9077 27.35 49.6277 27.27ZM56.166 26.07C55.866 26.03 55.606 25.82 55.386 25.44C55.186 25.04 55.066 24.68 55.026 24.36C55.046 24.2 55.066 23.97 55.086 23.67C55.126 23.37 55.166 23.06 55.206 22.74C55.286 22.36 55.396 21.9 55.536 21.36C55.676 20.8 55.816 20.24 55.956 19.68C56.116 19.12 56.256 18.64 56.376 18.24C56.496 17.84 56.576 17.6 56.616 17.52C56.716 17.36 56.876 17.32 57.096 17.4C57.316 17.48 57.496 17.6 57.636 17.76C57.756 17.92 57.826 18.11 57.846 18.33C57.886 18.55 57.856 18.87 57.756 19.29C57.676 19.71 57.516 20.33 57.276 21.15C57.056 21.95 56.886 22.6 56.766 23.1C56.666 23.58 56.626 24.09 56.646 24.63C56.566 25.31 56.506 25.73 56.466 25.89C56.426 26.03 56.326 26.09 56.166 26.07ZM59.616 14.1C59.536 14.16 59.456 14.19 59.376 14.19C59.316 14.17 59.206 14.11 59.046 14.01C58.906 13.99 58.726 13.9 58.506 13.74C58.306 13.56 58.126 13.38 57.966 13.2C57.826 13 57.756 12.88 57.756 12.84C57.736 12.64 57.746 12.39 57.786 12.09C57.846 11.77 57.956 11.49 58.116 11.25C58.276 10.99 58.506 10.85 58.806 10.83C58.886 10.83 58.956 10.84 59.016 10.86C59.076 10.88 59.256 10.95 59.556 11.07C59.716 11.37 59.876 11.71 60.036 12.09C60.196 12.45 60.266 12.81 60.246 13.17C60.226 13.51 60.016 13.82 59.616 14.1ZM62.0917 27.12C61.7117 26.96 61.3517 26.75 61.0117 26.49C60.6717 26.21 60.4517 25.98 60.3517 25.8C60.3517 25.62 60.3817 25.5 60.4417 25.44C60.5017 25.36 60.6717 25.33 60.9517 25.35C61.2517 25.35 61.7317 25.39 62.3917 25.47C62.6317 25.47 62.9317 25.45 63.2917 25.41C63.6517 25.37 63.9817 25.31 64.2817 25.23C64.6017 25.15 64.7817 25.05 64.8217 24.93C64.9217 24.93 64.9417 24.9 64.8817 24.84C64.8217 24.76 64.7517 24.68 64.6717 24.6C64.5917 24.6 64.5017 24.57 64.4017 24.51C64.3017 24.43 64.2117 24.39 64.1317 24.39C64.1317 24.29 64.0317 24.18 63.8317 24.06C63.6517 23.92 63.4617 23.81 63.2617 23.73C62.8217 23.37 62.4417 23.05 62.1217 22.77C61.8017 22.47 61.6817 22.27 61.7617 22.17C61.7617 22.09 61.7617 22.05 61.7617 22.05C61.7617 22.03 61.7617 22.02 61.7617 22.02C61.6217 22.02 61.4617 21.82 61.2817 21.42C61.1217 21.02 61.0417 20.66 61.0417 20.34C61.0417 20.1 61.1117 19.8 61.2517 19.44C61.3917 19.06 61.5817 18.67 61.8217 18.27C62.0617 17.87 62.3117 17.54 62.5717 17.28C62.9317 16.94 63.3817 16.58 63.9217 16.2C64.4617 15.8 64.9917 15.45 65.5117 15.15C66.0517 14.83 66.5017 14.62 66.8617 14.52C67.2217 14.38 67.5517 14.31 67.8517 14.31C68.1717 14.31 68.4517 14.38 68.6917 14.52C68.8917 14.62 69.0717 14.77 69.2317 14.97C69.4117 15.15 69.5617 15.34 69.6817 15.54C69.8217 15.72 69.9117 15.88 69.9517 16.02C69.9517 16.26 69.9317 16.53 69.8917 16.83C69.8517 17.11 69.7917 17.36 69.7117 17.58C69.6517 17.8 69.5517 17.91 69.4117 17.91C69.4117 17.91 69.3817 17.92 69.3217 17.94C69.2817 17.94 69.2617 17.99 69.2617 18.09C69.2617 18.29 69.1117 18.52 68.8117 18.78C68.4317 19.04 68.1017 19.2 67.8217 19.26C67.5417 19.3 67.3717 19.19 67.3117 18.93C67.2517 18.85 67.2117 18.78 67.1917 18.72C67.1717 18.66 67.1217 18.63 67.0417 18.63C67.0417 18.63 67.0117 18.6 66.9517 18.54C66.8917 18.48 66.8617 18.38 66.8617 18.24C66.8617 18.16 66.8917 18.09 66.9517 18.03C67.0117 17.95 67.0417 17.91 67.0417 17.91C67.1417 17.91 67.2717 17.8 67.4317 17.58C67.5917 17.34 67.7317 17.09 67.8517 16.83C67.9917 16.55 68.0617 16.36 68.0617 16.26C68.0617 16.14 68.0417 16.07 68.0017 16.05C67.9817 16.03 67.8917 16.02 67.7317 16.02C67.4517 16.14 67.1117 16.3 66.7117 16.5C66.3117 16.7 65.9317 16.9 65.5717 17.1C65.2317 17.28 64.9817 17.45 64.8217 17.61C64.7417 17.75 64.6917 17.84 64.6717 17.88C64.6517 17.9 64.6017 17.91 64.5217 17.91C64.5217 17.83 64.4517 17.87 64.3117 18.03C64.1917 18.17 64.0317 18.37 63.8317 18.63C63.6517 18.89 63.4717 19.15 63.2917 19.41C63.1317 19.65 63.0117 19.83 62.9317 19.95C62.8917 19.99 62.8417 20.11 62.7817 20.31C62.7417 20.49 62.7217 20.66 62.7217 20.82C62.6417 21.06 62.6517 21.23 62.7517 21.33C62.8517 21.41 63.0717 21.59 63.4117 21.87C64.1117 22.39 64.6617 22.82 65.0617 23.16C65.4617 23.5 65.7617 23.78 65.9617 24C66.1617 24.22 66.2817 24.42 66.3217 24.6C66.6817 25.2 66.7917 25.66 66.6517 25.98C66.5117 26.3 66.1717 26.58 65.6317 26.82C65.4317 26.92 65.1017 27 64.6417 27.06C64.1817 27.12 63.7117 27.15 63.2317 27.15C62.7517 27.17 62.3717 27.16 62.0917 27.12ZM74.2363 26.94C73.9563 26.86 73.7263 26.77 73.5463 26.67C73.3663 26.55 73.1263 26.36 72.8263 26.1C72.5863 25.78 72.3963 25.48 72.2563 25.2C72.1363 24.92 72.0563 24.6 72.0163 24.24C71.9763 23.86 71.9563 23.38 71.9563 22.8C71.9563 22.56 71.9963 22.2 72.0763 21.72C72.1763 21.24 72.2863 20.74 72.4063 20.22C72.5463 19.68 72.6663 19.2 72.7663 18.78C72.8863 18.36 72.9563 18.09 72.9763 17.97C73.0363 17.71 72.9363 17.56 72.6763 17.52C72.4163 17.48 72.1263 17.47 71.8063 17.49C71.5063 17.49 71.3063 17.46 71.2063 17.4C71.1263 17.38 71.0863 17.35 71.0863 17.31C71.0863 17.25 71.0863 17.22 71.0863 17.22C71.0863 17.14 71.0763 17.09 71.0563 17.07C71.0563 17.03 71.0263 16.96 70.9663 16.86C70.9263 16.78 70.9463 16.67 71.0263 16.53C71.1263 16.37 71.2863 16.27 71.5063 16.23C71.6863 16.19 71.9263 16.16 72.2263 16.14C72.5463 16.1 72.8663 16.03 73.1863 15.93C73.5063 15.81 73.7663 15.63 73.9663 15.39C74.1463 14.95 74.3563 14.46 74.5963 13.92C74.8363 13.38 75.0663 12.9 75.2863 12.48C75.5263 12.04 75.6863 11.77 75.7663 11.67C76.1063 11.49 76.3563 11.42 76.5163 11.46C76.6763 11.48 76.8563 11.65 77.0563 11.97C77.1563 12.11 77.2263 12.22 77.2663 12.3C77.3263 12.38 77.3363 12.5 77.2963 12.66C77.2563 12.82 77.1463 13.07 76.9663 13.41C76.8063 13.75 76.5563 14.24 76.2163 14.88C76.1163 15.08 76.0263 15.26 75.9463 15.42C75.8663 15.56 75.8263 15.63 75.8263 15.63C75.9063 15.65 76.0263 15.66 76.1863 15.66C76.3463 15.66 76.5463 15.65 76.7863 15.63C77.0063 15.59 77.2863 15.56 77.6263 15.54C77.9663 15.5 78.2363 15.5 78.4363 15.54C78.8963 15.54 79.2363 15.63 79.4563 15.81C79.6763 15.97 79.7963 16.25 79.8163 16.65C79.8563 16.87 79.8063 17 79.6663 17.04C79.5463 17.08 79.2163 17.1 78.6763 17.1C78.4963 17.1 78.2163 17.11 77.8363 17.13C77.4563 17.15 77.0563 17.17 76.6363 17.19C76.2363 17.21 75.8863 17.24 75.5863 17.28C75.3063 17.3 75.1663 17.33 75.1663 17.37C75.1063 17.41 75.0063 17.6 74.8663 17.94C74.7463 18.28 74.6163 18.67 74.4763 19.11C74.3563 19.53 74.2463 19.91 74.1463 20.25C74.0063 20.93 73.8963 21.61 73.8163 22.29C73.7563 22.97 73.7463 23.56 73.7863 24.06C73.8263 24.56 73.9363 24.91 74.1163 25.11C74.2963 25.29 74.6463 25.33 75.1663 25.23C75.6863 25.11 76.1063 24.92 76.4263 24.66C76.7863 24.36 77.0763 24.21 77.2963 24.21C77.5363 24.21 77.6663 24.32 77.6863 24.54C77.7263 24.74 77.6163 25.03 77.3563 25.41C77.1163 25.77 76.8163 26.09 76.4563 26.37C76.0963 26.63 75.7163 26.82 75.3163 26.94C74.9363 27.04 74.5763 27.04 74.2363 26.94Z" fill="currentColor"/>
</g>
</svg>
